<svg width="171" height="108" viewBox="0 0 171 108" fill="none" xmlns="http://www.w3.org/2000/svg">
<circle cx="81.5135" cy="50.3243" r="50.3243" fill="#FFCE51"/>
<circle cx="27.8784" cy="44.3648" r="17.8784" fill="#FF4F28"/>
<circle cx="143.095" cy="74.8243" r="13.9054" fill="#4560C2"/>
<path d="M27.8784 46.3513C56.3514 70.1892 98.0676 81.4459 142.432 76.9294" stroke="white" stroke-opacity="0.37" stroke-width="0.3"/>
<path d="M13.3108 33.1082C10 26.4865 11.1359 23.0645 13.3108 20.5271C17.2838 15.8919 30.5268 17.8784 39.7971 22.5136" stroke="white" stroke-opacity="0.37" stroke-width="0.3"/>
<path d="M131.838 53.6352C139.784 56.2838 151.041 60.2568 152.365 62.9055C152.485 63.1462 153.689 65.5541 153.689 65.5541" stroke="white" stroke-opacity="0.37" stroke-width="0.3"/>
<circle cx="153.311" cy="64.3108" r="3.31081" fill="#BDBDBD"/>
<path d="M3.61426 56.0684C3.61426 55.3652 3.56543 52.1475 3.46777 46.415C3.43848 46.1904 3.32129 46 3.11621 45.8438C2.9209 45.6777 2.63281 45.5508 2.25195 45.4629C1.87109 45.375 1.55859 45.3115 1.31445 45.2725C1.08008 45.2334 0.748047 45.1943 0.318359 45.1553C0.279297 44.9795 0.259766 44.8574 0.259766 44.7891C0.259766 44.7305 0.279297 44.623 0.318359 44.4668C0.572266 44.4766 1.17773 44.501 2.13477 44.54C3.0918 44.5693 3.8291 44.584 4.34668 44.584C4.78613 44.584 5.61621 44.5645 6.83691 44.5254C8.05762 44.4863 8.93652 44.4668 9.47363 44.4668C11.9736 44.4668 13.8828 45.0479 15.2012 46.21C16.5195 47.3721 17.1787 48.9199 17.1787 50.8535C17.1787 52.6895 16.5879 54.1885 15.4062 55.3506C14.2246 56.5127 12.5449 57.0938 10.3672 57.0938C9.05859 57.0938 7.88184 56.8203 6.83691 56.2734C6.83691 58.6562 6.86621 61.2295 6.9248 63.9932C6.93457 64.2471 7.04688 64.4668 7.26172 64.6523C7.47656 64.8281 7.78418 64.9648 8.18457 65.0625C8.59473 65.1602 8.93652 65.2334 9.20996 65.2822C9.49316 65.3213 9.85938 65.3604 10.3086 65.3994C10.3477 65.5947 10.3672 65.7266 10.3672 65.7949C10.3672 65.873 10.3477 65.9707 10.3086 66.0879C8.64844 66.0293 6.94922 66 5.21094 66C3.45312 66 1.75391 66.0293 0.113281 66.0879C0.0742188 65.9707 0.0546875 65.873 0.0546875 65.7949C0.0546875 65.6289 0.0742188 65.4971 0.113281 65.3994C0.5625 65.3604 0.923828 65.3213 1.19727 65.2822C1.48047 65.2334 1.82227 65.1602 2.22266 65.0625C2.63281 64.9648 2.94531 64.8281 3.16016 64.6523C3.375 64.4668 3.4873 64.2471 3.49707 63.9932C3.5752 61.4834 3.61426 58.8418 3.61426 56.0684ZM6.9248 45.4775C6.86621 48.9932 6.83691 52.2646 6.83691 55.292C7.6377 55.6533 8.43359 55.834 9.22461 55.834C10.6016 55.834 11.6367 55.3896 12.3301 54.501C13.0234 53.6123 13.3701 52.3867 13.3701 50.8242C13.3701 47.2207 11.5879 45.4189 8.02344 45.4189C7.79883 45.4189 7.43262 45.4385 6.9248 45.4775ZM19.2148 44.9355C21.0703 44.7598 22.7158 44.3594 24.1514 43.7344C24.415 43.8418 24.5859 43.9736 24.6641 44.1299C24.6641 55.1943 24.7031 61.8154 24.7812 63.9932C24.791 64.1982 24.8496 64.3838 24.957 64.5498C25.0742 64.7061 25.2012 64.833 25.3379 64.9307C25.4746 65.0186 25.6602 65.1016 25.8945 65.1797C26.1289 65.248 26.3096 65.2969 26.4365 65.3262C26.5732 65.3457 26.7539 65.3701 26.9785 65.3994C27.0371 65.5166 27.0664 65.6387 27.0664 65.7656C27.0664 65.8926 27.0371 66 26.9785 66.0879C25.6895 66.0293 24.4395 66 23.2285 66C22.0371 66 20.7969 66.0293 19.5078 66.0879C19.4688 65.9316 19.4492 65.8242 19.4492 65.7656C19.4492 65.7168 19.4688 65.5947 19.5078 65.3994C19.8301 65.3604 20.0889 65.3213 20.2842 65.2822C20.4893 65.2334 20.7432 65.1602 21.0459 65.0625C21.3584 64.9648 21.5928 64.8281 21.749 64.6523C21.9053 64.4668 21.9883 64.2471 21.998 63.9932C22.0371 63.0264 22.0566 60.8633 22.0566 57.5039C22.0566 55.9512 22.0518 53.8369 22.042 51.1611C22.0322 48.4854 22.0273 46.8398 22.0273 46.2246C21.4707 45.9023 20.5332 45.7021 19.2148 45.624C19.166 45.4971 19.1416 45.3799 19.1416 45.2725C19.1416 45.1748 19.166 45.0625 19.2148 44.9355ZM30.4648 56.376C30.4648 55.3018 30.9531 54.418 31.9297 53.7246C32.916 53.0312 34.0781 52.6846 35.416 52.6846C37.0566 52.6846 38.209 53.0117 38.873 53.666C39.5469 54.3203 39.8838 55.4238 39.8838 56.9766V63.0557C39.8838 63.6025 40.084 63.876 40.4844 63.876C40.8066 63.876 41.2168 63.4854 41.7148 62.7041C42.0664 62.7334 42.3057 62.8896 42.4326 63.1729C42.3643 63.2705 42.2471 63.4463 42.0811 63.7002C41.915 63.9541 41.793 64.1348 41.7148 64.2422C41.6367 64.3496 41.5146 64.5156 41.3486 64.7402C41.1826 64.9551 41.0459 65.1162 40.9385 65.2236C40.8408 65.3311 40.7041 65.458 40.5283 65.6045C40.3623 65.751 40.2061 65.8633 40.0596 65.9414C39.9229 66.0098 39.7617 66.0684 39.5762 66.1172C39.3906 66.1758 39.2051 66.2051 39.0195 66.2051C38.5312 66.2051 38.126 66.0293 37.8037 65.6777C37.4912 65.3262 37.3057 64.7842 37.2471 64.0518C37.2373 64.0615 37.0859 64.2031 36.793 64.4766C36.5 64.75 36.2949 64.9355 36.1777 65.0332C36.0703 65.1211 35.8604 65.2822 35.5479 65.5166C35.2451 65.7412 34.9863 65.9023 34.7715 66C34.5566 66.0977 34.2881 66.1904 33.9658 66.2783C33.6436 66.376 33.3262 66.4248 33.0137 66.4248C32.5156 66.4248 32.0713 66.3564 31.6807 66.2197C31.2998 66.083 31.002 65.917 30.7871 65.7217C30.5723 65.5264 30.3965 65.3018 30.2598 65.0479C30.123 64.7842 30.0303 64.5449 29.9814 64.3301C29.9424 64.1152 29.9229 63.9004 29.9229 63.6855C29.9229 63.0312 30.0303 62.4795 30.2451 62.0303C30.4697 61.5811 30.8799 61.1611 31.4756 60.7705C32.0811 60.3799 32.8232 60.0332 33.7021 59.7305C34.5811 59.4277 35.7627 59.0859 37.2471 58.7051V56.6689C37.2471 55.6826 37.0273 54.9453 36.5879 54.457C36.1582 53.9688 35.5771 53.7246 34.8447 53.7246C34.1904 53.7246 33.6387 53.8564 33.1895 54.1201C32.75 54.374 32.4814 54.6719 32.3838 55.0137C33.3408 55.1602 33.8193 55.6826 33.8193 56.5811C33.8193 56.9912 33.6729 57.3525 33.3799 57.665C33.0869 57.9775 32.6768 58.1338 32.1494 58.1338C31.71 58.1338 31.3193 57.9824 30.9775 57.6797C30.6357 57.3672 30.4648 56.9326 30.4648 56.376ZM37.2471 62.7041V59.6426C36.3486 59.8477 35.6064 60.0723 35.0205 60.3164C34.4346 60.5508 33.9854 60.8096 33.6729 61.0928C33.3701 61.376 33.1602 61.6689 33.043 61.9717C32.9258 62.2646 32.8672 62.6064 32.8672 62.9971C32.8672 63.4854 33.0088 63.8711 33.292 64.1543C33.585 64.4277 33.9414 64.5645 34.3613 64.5645C35.3379 64.5645 36.2998 63.9443 37.2471 62.7041ZM52.0566 65.3994C52.1152 65.5166 52.1445 65.6387 52.1445 65.7656C52.1445 65.8633 52.1152 65.9707 52.0566 66.0879C50.7676 66.0293 49.5176 66 48.3066 66C47.1152 66 45.875 66.0293 44.5859 66.0879C44.5469 65.9316 44.5273 65.8242 44.5273 65.7656C44.5273 65.7168 44.5469 65.5947 44.5859 65.3994C44.9082 65.3604 45.1719 65.3213 45.377 65.2822C45.582 65.2334 45.8359 65.1602 46.1387 65.0625C46.4414 64.9648 46.6709 64.8281 46.8271 64.6523C46.9834 64.4668 47.0664 64.2471 47.0762 63.9932C47.1152 63.0264 47.1348 61.8545 47.1348 60.4775C47.1348 60.0186 47.1299 59.2373 47.1201 58.1338C47.1104 57.0303 47.1055 56.0635 47.1055 55.2334C46.5488 54.8916 45.6113 54.6914 44.293 54.6328C44.2539 54.4766 44.2344 54.3545 44.2344 54.2666C44.2344 54.208 44.2539 54.1006 44.293 53.9443C46.1875 53.749 47.8379 53.3486 49.2441 52.7432C49.4883 52.8408 49.6592 52.9678 49.7568 53.124V55.4385C50.7041 54.6084 51.6123 53.9443 52.4814 53.4463C53.3506 52.9385 54.2295 52.6846 55.1182 52.6846C56.2314 52.6846 57.0176 52.9971 57.4766 53.6221C57.9453 54.2471 58.1895 55.2236 58.209 56.5518L58.3555 63.9932C58.3652 64.2471 58.4385 64.4668 58.5752 64.6523C58.7217 64.8281 58.9268 64.9648 59.1904 65.0625C59.4639 65.1602 59.6885 65.2334 59.8643 65.2822C60.04 65.3213 60.2695 65.3604 60.5527 65.3994C60.5918 65.5947 60.6113 65.7266 60.6113 65.7949C60.6113 65.873 60.5918 65.9707 60.5527 66.0879C59.293 66.0293 58.1309 66 57.0664 66C56.0312 66 54.8838 66.0293 53.624 66.0879C53.585 65.9316 53.5654 65.8145 53.5654 65.7363C53.5654 65.668 53.585 65.5557 53.624 65.3994C53.8779 65.3604 54.0879 65.3213 54.2539 65.2822C54.4297 65.2334 54.625 65.1602 54.8398 65.0625C55.0645 64.9648 55.2305 64.8281 55.3379 64.6523C55.4551 64.4668 55.5137 64.2471 55.5137 63.9932L55.543 57.0352C55.543 55.2676 55.0107 54.3838 53.9463 54.3838C52.9502 54.3838 51.5537 55.0479 49.7568 56.376C49.7568 59.2178 49.7959 61.7568 49.874 63.9932C49.8838 64.2471 49.957 64.4668 50.0938 64.6523C50.2402 64.8281 50.4453 64.9648 50.709 65.0625C50.9727 65.1602 51.1924 65.2334 51.3682 65.2822C51.5439 65.3213 51.7734 65.3604 52.0566 65.3994ZM73.9707 58.2363H65.9873C65.9482 58.8223 65.9287 59.3398 65.9287 59.7891C65.958 61.2441 66.3828 62.4111 67.2031 63.29C68.0234 64.1592 69.1221 64.5938 70.499 64.5938C70.8701 64.5938 71.2168 64.5547 71.5391 64.4766C71.8613 64.3887 72.125 64.291 72.3301 64.1836C72.5449 64.0762 72.7646 63.9199 72.9893 63.7148C73.2139 63.5098 73.375 63.3486 73.4727 63.2314C73.5801 63.1045 73.7217 62.9189 73.8975 62.6748C74.0732 62.4209 74.1904 62.2598 74.249 62.1914C74.4834 62.2402 74.6738 62.3477 74.8203 62.5137C74.332 63.8223 73.5752 64.8037 72.5498 65.458C71.5244 66.1025 70.4111 66.4248 69.21 66.4248C68.6143 66.4248 68.0332 66.3467 67.4668 66.1904C66.9102 66.0439 66.3682 65.7998 65.8408 65.458C65.3135 65.1162 64.8545 64.6963 64.4639 64.1982C64.0732 63.6904 63.7607 63.0605 63.5264 62.3086C63.292 61.5469 63.1748 60.707 63.1748 59.7891C63.1748 57.7285 63.8047 56.0293 65.0645 54.6914C66.3242 53.3535 67.8721 52.6846 69.708 52.6846C70.5186 52.6846 71.2217 52.8018 71.8174 53.0361C72.4229 53.2607 72.8916 53.5684 73.2236 53.959C73.5654 54.3496 73.8145 54.7793 73.9707 55.248C74.1367 55.707 74.2197 56.2002 74.2197 56.7275C74.2197 57.2158 74.1367 57.7188 73.9707 58.2363ZM69.3564 53.6367C68.6826 53.6367 68.043 53.9346 67.4375 54.5303C66.8418 55.126 66.4121 56.0293 66.1484 57.2402H71.4219C71.5195 56.8691 71.5684 56.5469 71.5684 56.2734C71.5684 55.5117 71.3926 54.8818 71.041 54.3838C70.6895 53.8857 70.1279 53.6367 69.3564 53.6367ZM81.2949 50.1943C81.3926 50.1553 81.5049 50.1357 81.6318 50.1357C81.7588 50.1357 81.8906 50.1553 82.0273 50.1943V53.4023H86.4658C86.5244 53.5488 86.5537 53.7295 86.5537 53.9443C86.5537 54.1299 86.5244 54.3008 86.4658 54.457H82.0273V62.2793C82.0273 63.8223 82.7354 64.5938 84.1514 64.5938C84.6885 64.5938 85.1475 64.4912 85.5283 64.2861C85.9189 64.0811 86.3486 63.7734 86.8174 63.3633C87.0615 63.3926 87.2227 63.5098 87.3008 63.7148C86.8711 64.4863 86.2363 65.1309 85.3965 65.6484C84.5566 66.166 83.6338 66.4248 82.6279 66.4248C80.2646 66.4248 79.083 64.9941 79.083 62.1328V54.457H77.2812C77.2422 54.2812 77.2227 54.1689 77.2227 54.1201C77.2227 54.1104 77.2422 53.998 77.2812 53.7832C77.75 53.5488 78.1064 53.3584 78.3506 53.2119C78.6045 53.0557 78.9219 52.8359 79.3027 52.5527C79.6934 52.2695 80.0449 51.9375 80.3574 51.5566C80.6797 51.166 80.9922 50.7119 81.2949 50.1943ZM90.2598 56.376C90.2598 55.3018 90.748 54.418 91.7246 53.7246C92.7109 53.0312 93.873 52.6846 95.2109 52.6846C96.8516 52.6846 98.0039 53.0117 98.668 53.666C99.3418 54.3203 99.6787 55.4238 99.6787 56.9766V63.0557C99.6787 63.6025 99.8789 63.876 100.279 63.876C100.602 63.876 101.012 63.4854 101.51 62.7041C101.861 62.7334 102.101 62.8896 102.228 63.1729C102.159 63.2705 102.042 63.4463 101.876 63.7002C101.71 63.9541 101.588 64.1348 101.51 64.2422C101.432 64.3496 101.31 64.5156 101.144 64.7402C100.978 64.9551 100.841 65.1162 100.733 65.2236C100.636 65.3311 100.499 65.458 100.323 65.6045C100.157 65.751 100.001 65.8633 99.8545 65.9414C99.7178 66.0098 99.5566 66.0684 99.3711 66.1172C99.1855 66.1758 99 66.2051 98.8145 66.2051C98.3262 66.2051 97.9209 66.0293 97.5986 65.6777C97.2861 65.3262 97.1006 64.7842 97.042 64.0518C97.0322 64.0615 96.8809 64.2031 96.5879 64.4766C96.2949 64.75 96.0898 64.9355 95.9727 65.0332C95.8652 65.1211 95.6553 65.2822 95.3428 65.5166C95.04 65.7412 94.7812 65.9023 94.5664 66C94.3516 66.0977 94.083 66.1904 93.7607 66.2783C93.4385 66.376 93.1211 66.4248 92.8086 66.4248C92.3105 66.4248 91.8662 66.3564 91.4756 66.2197C91.0947 66.083 90.7969 65.917 90.582 65.7217C90.3672 65.5264 90.1914 65.3018 90.0547 65.0479C89.918 64.7842 89.8252 64.5449 89.7764 64.3301C89.7373 64.1152 89.7178 63.9004 89.7178 63.6855C89.7178 63.0312 89.8252 62.4795 90.04 62.0303C90.2646 61.5811 90.6748 61.1611 91.2705 60.7705C91.876 60.3799 92.6182 60.0332 93.4971 59.7305C94.376 59.4277 95.5576 59.0859 97.042 58.7051V56.6689C97.042 55.6826 96.8223 54.9453 96.3828 54.457C95.9531 53.9688 95.3721 53.7246 94.6396 53.7246C93.9854 53.7246 93.4336 53.8564 92.9844 54.1201C92.5449 54.374 92.2764 54.6719 92.1787 55.0137C93.1357 55.1602 93.6143 55.6826 93.6143 56.5811C93.6143 56.9912 93.4678 57.3525 93.1748 57.665C92.8818 57.9775 92.4717 58.1338 91.9443 58.1338C91.5049 58.1338 91.1143 57.9824 90.7725 57.6797C90.4307 57.3672 90.2598 56.9326 90.2598 56.376ZM97.042 62.7041V59.6426C96.1436 59.8477 95.4014 60.0723 94.8154 60.3164C94.2295 60.5508 93.7803 60.8096 93.4678 61.0928C93.165 61.376 92.9551 61.6689 92.8379 61.9717C92.7207 62.2646 92.6621 62.6064 92.6621 62.9971C92.6621 63.4854 92.8037 63.8711 93.0869 64.1543C93.3799 64.4277 93.7363 64.5645 94.1562 64.5645C95.1328 64.5645 96.0947 63.9443 97.042 62.7041ZM104.088 53.9443C105.982 53.749 107.633 53.3486 109.039 52.7432C109.283 52.8408 109.454 52.9678 109.552 53.124V55.6436C109.913 54.96 110.45 54.2959 111.163 53.6514C111.886 53.0068 112.638 52.6846 113.419 52.6846C114.005 52.6846 114.479 52.8604 114.84 53.2119C115.211 53.5537 115.396 54.0273 115.396 54.6328C115.396 55.209 115.226 55.6582 114.884 55.9805C114.542 56.3027 114.112 56.4639 113.595 56.4639C113.116 56.4639 112.721 56.3125 112.408 56.0098C112.105 55.6973 111.939 55.2871 111.91 54.7793C111.5 54.9551 111.031 55.3457 110.504 55.9512C109.986 56.5566 109.669 57.1572 109.552 57.7529C109.552 59.9307 109.591 62.0107 109.669 63.9932C109.679 64.2471 109.771 64.4668 109.947 64.6523C110.123 64.8281 110.382 64.9648 110.724 65.0625C111.065 65.1602 111.349 65.2334 111.573 65.2822C111.798 65.3213 112.091 65.3604 112.452 65.3994C112.511 65.5166 112.54 65.6387 112.54 65.7656C112.54 65.8633 112.511 65.9707 112.452 66.0879C110.987 66.0293 109.537 66 108.102 66C106.91 66 105.67 66.0293 104.381 66.0879C104.342 65.9316 104.322 65.8242 104.322 65.7656C104.322 65.7168 104.342 65.5947 104.381 65.3994C104.703 65.3604 104.967 65.3213 105.172 65.2822C105.377 65.2334 105.631 65.1602 105.934 65.0625C106.236 64.9648 106.466 64.8281 106.622 64.6523C106.778 64.4668 106.861 64.2471 106.871 63.9932C106.91 63.0264 106.93 61.8545 106.93 60.4775C106.93 60.0186 106.925 59.2373 106.915 58.1338C106.905 57.0303 106.9 56.0635 106.9 55.2334C106.344 54.8916 105.406 54.6914 104.088 54.6328C104.049 54.4766 104.029 54.3545 104.029 54.2666C104.029 54.208 104.049 54.1006 104.088 53.9443ZM117.271 53.9443C119.166 53.749 120.816 53.3486 122.223 52.7432C122.467 52.8408 122.638 52.9678 122.735 53.124C122.735 58.1924 122.774 61.8154 122.853 63.9932C122.862 64.2471 122.936 64.4668 123.072 64.6523C123.219 64.8281 123.424 64.9648 123.688 65.0625C123.951 65.1602 124.171 65.2334 124.347 65.2822C124.522 65.3213 124.752 65.3604 125.035 65.3994C125.094 65.5166 125.123 65.6387 125.123 65.7656C125.123 65.8926 125.094 66 125.035 66.0879C123.746 66.0293 122.496 66 121.285 66C120.094 66 118.854 66.0293 117.564 66.0879C117.525 65.9316 117.506 65.8242 117.506 65.7656C117.506 65.7168 117.525 65.5947 117.564 65.3994C117.887 65.3604 118.15 65.3213 118.355 65.2822C118.561 65.2334 118.814 65.1602 119.117 65.0625C119.42 64.9648 119.649 64.8281 119.806 64.6523C119.962 64.4668 120.045 64.2471 120.055 63.9932C120.094 63.0264 120.113 61.8545 120.113 60.4775C120.113 60.0186 120.108 59.2373 120.099 58.1338C120.089 57.0303 120.084 56.0635 120.084 55.2334C119.527 54.8916 118.59 54.6914 117.271 54.6328C117.232 54.4766 117.213 54.3545 117.213 54.2666C117.213 54.208 117.232 54.1006 117.271 53.9443ZM119.571 47.8213C119.571 47.3232 119.747 46.8984 120.099 46.5469C120.46 46.1953 120.885 46.0195 121.373 46.0195C121.871 46.0195 122.296 46.1953 122.647 46.5469C122.999 46.8984 123.175 47.3232 123.175 47.8213C123.175 48.3096 122.999 48.7344 122.647 49.0957C122.296 49.4473 121.871 49.623 121.373 49.623C120.885 49.623 120.46 49.4473 120.099 49.0957C119.747 48.7344 119.571 48.3096 119.571 47.8213ZM126.896 53.0068C127.247 53.0264 127.599 53.0459 127.95 53.0654C128.302 53.085 128.58 53.0996 128.785 53.1094C128.99 53.1191 129.181 53.124 129.356 53.124C129.503 53.124 129.674 53.1191 129.869 53.1094C130.064 53.0996 130.328 53.085 130.66 53.0654C131.002 53.0459 131.329 53.0264 131.642 53.0068C131.817 53.0654 131.959 53.2168 132.066 53.4609C132.057 53.5391 132.037 53.6562 132.008 53.8125C131.988 53.959 131.969 54.1396 131.949 54.3545C131.939 54.5596 131.935 54.8135 131.935 55.1162L131.905 62.0742C131.905 63.832 132.438 64.7109 133.502 64.7109C134.488 64.7109 135.89 64.0615 137.706 62.7627C137.706 59.8525 137.662 57.3037 137.574 55.1162C137.574 54.9404 137.54 54.7842 137.472 54.6475C137.403 54.5107 137.296 54.3936 137.149 54.2959C137.013 54.1982 136.886 54.1201 136.769 54.0615C136.661 53.9932 136.5 53.9346 136.285 53.8857C136.07 53.8271 135.919 53.793 135.831 53.7832C135.743 53.7637 135.597 53.7344 135.392 53.6953C135.353 53.5391 135.333 53.4219 135.333 53.3438C135.333 53.2754 135.353 53.1631 135.392 53.0068C135.733 53.0264 136.08 53.0459 136.432 53.0654C136.793 53.085 137.076 53.0996 137.281 53.1094C137.486 53.1191 137.677 53.124 137.853 53.124C137.999 53.124 138.17 53.1191 138.365 53.1094C138.561 53.0996 138.824 53.085 139.156 53.0654C139.498 53.0459 139.825 53.0264 140.138 53.0068C140.187 53.0361 140.226 53.0654 140.255 53.0947C140.294 53.1143 140.323 53.1436 140.343 53.1826C140.372 53.2119 140.392 53.2363 140.401 53.2559C140.411 53.2656 140.426 53.2998 140.445 53.3584C140.465 53.4072 140.479 53.4414 140.489 53.4609C140.411 53.9883 140.372 54.54 140.372 55.1162C140.313 56.5518 140.284 57.7188 140.284 58.6172C140.284 59.0859 140.294 59.8721 140.313 60.9756C140.333 62.0791 140.343 63.0459 140.343 63.876C140.899 64.1982 141.837 64.3984 143.155 64.4766C143.204 64.7207 143.229 64.8477 143.229 64.8574C143.229 64.916 143.204 65.0186 143.155 65.165C141.31 65.3408 139.659 65.7412 138.204 66.3662C137.95 66.2588 137.784 66.127 137.706 65.9707V63.6855C136.729 64.5254 135.807 65.1943 134.938 65.6924C134.078 66.1807 133.209 66.4248 132.33 66.4248C131.217 66.4248 130.426 66.1123 129.957 65.4873C129.498 64.8623 129.259 63.8809 129.239 62.543L129.122 55.1162C129.103 54.8916 129.059 54.7256 128.99 54.6182C128.932 54.501 128.829 54.3936 128.683 54.2959C128.546 54.1982 128.419 54.1201 128.302 54.0615C128.185 53.9932 128.019 53.9346 127.804 53.8857C127.589 53.8271 127.438 53.793 127.35 53.7832C127.262 53.7637 127.11 53.7344 126.896 53.6953C126.856 53.5391 126.837 53.4219 126.837 53.3438C126.837 53.2754 126.856 53.1631 126.896 53.0068ZM162.77 65.3994C163.014 65.3604 163.214 65.3213 163.37 65.2822C163.536 65.2334 163.717 65.1602 163.912 65.0625C164.107 64.9648 164.254 64.8281 164.352 64.6523C164.449 64.4668 164.498 64.2471 164.498 63.9932L164.527 57.0352C164.527 55.2676 164 54.3838 162.945 54.3838C162.418 54.3838 161.847 54.5498 161.231 54.8818C160.616 55.2139 159.879 55.7119 159.02 56.376V56.5518L159.137 63.9932C159.146 64.2471 159.22 64.4668 159.356 64.6523C159.503 64.8281 159.708 64.9648 159.972 65.0625C160.235 65.1602 160.455 65.2334 160.631 65.2822C160.807 65.3213 161.036 65.3604 161.319 65.3994C161.358 65.5947 161.378 65.7266 161.378 65.7949C161.378 65.873 161.358 65.9707 161.319 66.0879C160.06 66.0293 158.912 66 157.877 66C156.93 66 155.826 66.0293 154.566 66.0879C154.527 65.9316 154.508 65.8145 154.508 65.7363C154.508 65.668 154.527 65.5557 154.566 65.3994C154.811 65.3604 155.016 65.3213 155.182 65.2822C155.348 65.2334 155.528 65.1602 155.724 65.0625C155.919 64.9648 156.065 64.8281 156.163 64.6523C156.261 64.4668 156.31 64.2471 156.31 63.9932L156.339 57.0352C156.339 55.2676 155.812 54.3838 154.757 54.3838C154.229 54.3838 153.668 54.5449 153.072 54.8672C152.486 55.1895 151.749 55.6826 150.86 56.3467C150.86 59.208 150.899 61.7568 150.978 63.9932C150.987 64.2471 151.056 64.4668 151.183 64.6523C151.31 64.8281 151.49 64.9648 151.725 65.0625C151.969 65.1602 152.179 65.2334 152.354 65.2822C152.53 65.3213 152.75 65.3604 153.014 65.3994C153.072 65.5166 153.102 65.6387 153.102 65.7656C153.102 65.8633 153.072 65.9707 153.014 66.0879C151.725 66.0293 150.523 66 149.41 66C148.219 66 146.979 66.0293 145.689 66.0879C145.65 65.9316 145.631 65.8242 145.631 65.7656C145.631 65.7168 145.65 65.5947 145.689 65.3994C146.012 65.3604 146.275 65.3213 146.48 65.2822C146.686 65.2334 146.939 65.1602 147.242 65.0625C147.545 64.9648 147.774 64.8281 147.931 64.6523C148.087 64.4668 148.17 64.2471 148.18 63.9932C148.219 63.0264 148.238 61.8545 148.238 60.4775C148.238 60.0186 148.233 59.2373 148.224 58.1338C148.214 57.0303 148.209 56.0635 148.209 55.2334C147.652 54.8916 146.715 54.6914 145.396 54.6328C145.357 54.4766 145.338 54.3545 145.338 54.2666C145.338 54.208 145.357 54.1006 145.396 53.9443C147.291 53.749 148.941 53.3486 150.348 52.7432C150.592 52.8408 150.763 52.9678 150.86 53.124V55.4385C151.319 55.0186 151.705 54.6816 152.018 54.4277C152.33 54.1641 152.711 53.8809 153.16 53.5781C153.619 53.2754 154.073 53.0508 154.522 52.9043C154.981 52.7578 155.45 52.6846 155.929 52.6846C156.886 52.6846 157.599 52.9141 158.067 53.373C158.536 53.8223 158.829 54.5303 158.946 55.4971C159.444 55.0479 159.84 54.7012 160.133 54.457C160.436 54.2129 160.826 53.9297 161.305 53.6074C161.783 53.2852 162.252 53.0508 162.711 52.9043C163.17 52.7578 163.639 52.6846 164.117 52.6846C165.221 52.6846 166.007 52.9971 166.476 53.6221C166.944 54.2471 167.188 55.2236 167.208 56.5518L167.354 63.9932C167.364 64.2471 167.438 64.4668 167.574 64.6523C167.721 64.8281 167.926 64.9648 168.189 65.0625C168.453 65.1602 168.673 65.2334 168.849 65.2822C169.024 65.3213 169.254 65.3604 169.537 65.3994C169.586 65.6436 169.61 65.7754 169.61 65.7949C169.61 65.8438 169.586 65.9414 169.537 66.0879C168.277 66.0293 167.12 66 166.065 66C165.128 66 164.029 66.0293 162.77 66.0879C162.721 65.8926 162.696 65.7754 162.696 65.7363C162.696 65.707 162.721 65.5947 162.77 65.3994Z" fill="white"/>
</svg>
